<?xml version="1.0" encoding="UTF-8"?>
<svg width="752pt" height="752pt" version="1.1" viewBox="0 0 752 752" xmlns="http://www.w3.org/2000/svg">
 <g>
  <path d="m416.71 341.66c21.652-1.8945 95.691-29.836 126-14.207l30.746 15.629s-33.34-39.781-55.859-38.359c-22.516 1.8945-116.91 19.418-116.91 19.418s-5.6289 19.887 16.023 17.52z"/>
  <path d="m332.3 341.66c-21.652-1.8945-95.691-29.836-126-14.207-30.312 15.629-30.746 15.629-30.746 15.629s33.34-39.781 55.859-38.359c22.516 1.8945 116.91 19.418 116.91 19.418-0.003906 0 5.1914 19.887-16.023 17.52z"/>
  <path d="m533.78 402.93c0.40625 0.98047 0.84375 1.4805 0.80859 1.957 1.2852 1.9883 3.0742 3.543 4.8633 5.0898 3.582 3.1016 7.7305 4.8203 11.883 6.5352 8.3008 3.4336 16.203 5.8906 25.074 7.9453l0.03125-0.47266c-7.8281-3.3984-15.629-7.2773-22.918-11.59-3.6484-2.1562-6.7852-4.7539-10.434-6.9102-2.2656-1.5859-4.9961-3.2031-6.7539-5.2227 3.0703-3.1055 6.1367-6.2148 8.3242-10.328 2.6289-3.6133-8.4297 5.1016-23.207 12.602-11.332 5.8438-24.93 10.105-34.543 11.801-23.043 3.5938-48.992 1.2852-67.016-5.6875-3.7109-1.2109-3.8125 0.20312-4.418 2.0586-0.57422 1.3828-1.0781 1.8242-1.6211 2.7344-1.0117 0.875-2.0547 2.2305-3.0703 3.1055-2.5625 2.668-5.0898 4.8633-8.125 7.4961l-0.03125 0.47266c3.4062-1.1836 6.8477-2.8398 9.8516-5 1.4805-0.84375 2.9688-1.6914 4.0117-3.0391 2.7656 1.1445 5.0977 1.7852 7.8984 2.457-1.5469 1.7891-2.6289 3.6133-4.1836 5.4023-3.1016 3.582-6.6445 6.6523-10.656 9.6914l0.44141 0.50781c4.418-2.0586 8.3984-4.625 12.414-7.668 1.9883-1.2852 4.0117-3.0391 5.5977-5.3008 0.03125-0.47266 0.53906-0.91016 0.57422-1.3828 1.8555 0.60547 3.7461 0.73828 6.0742 1.3789-0.53906 0.91016-1.0469 1.3516-1.5859 2.2656-1.0781 1.8242-2.1562 3.6484-3.707 5.4375-2.6289 3.6133-5.7305 7.1875-8.832 10.77l0.44141 0.50781c3.9766-2.5664 7.5195-5.6406 11.098-9.1875 1.5469-1.7891 3.5742-3.5469 4.6836-5.8398 0.53906-0.91016 0.64062-2.3281 1.2109-3.7109 2.3281 0.64062 4.6875 0.80469 7.0508 0.97656-0.50781 0.44141-0.57422 1.3828-1.0781 1.8242-1.0781 1.8242-2.1562 3.6484-3.2344 5.4688-2.1562 3.6484-4.7891 7.2617-7.8906 10.836l0.44141 0.50781c3.5078-2.6016 7.0469-5.6719 10.148-9.2539 1.5469-1.7891 3.1016-3.582 4.2148-5.8711 0.53906-0.91016 0.60547-1.8555 0.70703-3.2734 2.3633 0.16406 5.1953 0.37109 8.0312 0.56641-0.03125 0.47266-0.50781 0.44141-0.53906 0.91016-1.0781 1.8242-2.1875 4.1211-3.3008 6.4141-2.2266 4.5898-4.8867 8.6758-8.0234 12.727l0.44141 0.50781c3.5742-3.5469 7.1445-7.0898 10.281-11.145 1.5859-2.2656 3.1367-4.0508 4.2812-6.8203 0.066406-0.94531 0.57422-1.3828 0.64062-2.3281 2.3633 0.16406 4.2539 0.29688 6.6484-0.003906-0.64062 2.3281-0.80469 4.6875-0.97656 7.0508-1.2773 4.6562-2.5898 9.7891-3.8711 14.445l0.47266 0.03125c2.6953-4.5547 4.9219-9.1484 6.6719-13.773 1.1133-2.2969 1.7852-5.0977 1.9492-7.457 0.03125-0.47266 0.03125-0.47266 0.066406-0.94531 1.8906 0.13281 3.3398-0.23828 5.2266-0.10547-0.066406 0.94531-0.64062 2.3281-0.23047 3.3047-0.16406 2.3633 1.0859 4.8242 1.8945 6.7812 1.5898 4.3867 3.1758 8.7695 5.7461 12.75l0.47266 0.03125c-0.60938-4.793-1.2539-9.1055-1.8672-13.898-0.30469-2.3945-0.13672-4.7578-0.47656-6.6836-0.40625-0.98047-0.80859-1.957-1.1836-3.4062 1.9219-0.33984 3.3398-0.23828 5.2617-0.57812-0.13281 1.8906 0.23828 3.3398 0.60938 4.793 0.71094 3.3711 2.9414 5.4336 4.6602 7.9297 3.918 5.0234 7.8711 9.5742 12.359 13.219l0.50781-0.44141c-3.4414-4.9922-6.418-9.9492-9.3594-15.379-1.25-2.4609-1.9922-5.3672-3.2422-7.8242-0.875-1.0117-1.25-2.4609-2.125-3.4766 1.9219-0.33984 3.8438-0.67578 5.7695-1.0195 0.40625 0.98047 0.80859 1.957 1.2188 2.9375 1.6562 3.4375 4.3242 6.0039 6.5156 8.5352 4.8633 5.0898 10.23 9.7422 16.105 13.957l0.50781-0.44141c-4.3906-5.0586-9.2188-10.621-13.105-16.121-2.1602-3.0039-3.375-5.9336-5.5742-8.4648-0.44141-0.50781-0.875-1.0117-0.84375-1.4805 2.9023-0.74219 5.3281-1.5195 8.2656-2.7383 0.30469 2.3945 1.5547 4.8594 2.8398 6.8477 2.125 3.4766 5.3008 5.5977 8.4727 7.7188 5.8711 4.2148 12.258 7.9883 19.176 10.852l0.03125-0.47266c-5.8711-4.2148-11.242-8.8672-16.574-13.988-2.668-2.5625-4.3555-5.5312-7.0547-7.6211-1.3164-1.5156-2.6328-3.0352-3.9492-4.5508 2.4297-0.77734 4.418-2.0586 6.375-2.875 0.77734 2.4297 2.0938 3.9453 3.375 5.9336 2.6016 3.5078 6.2461 5.6641 9.8945 7.8203 6.7852 4.7539 14.145 8.1211 21.5 11.488l0.03125-0.47266c-3.1719-2.1211-6.7852-4.7539-9.9609-6.875-3.1406-2.5938-6.3125-4.7188-9.4531-7.3164-3.1406-2.5938-5.7734-5.6328-8.4375-8.1914-1.3164-1.5156-2.668-2.5625-3.9844-4.0781 2.4609-1.25 4.957-2.9727 7.4531-4.6914-0.03125 0.47266-0.066406 0.94531 0.40625 0.98047 0.77734 2.4297 2.0586 4.418 3.375 5.9336 3.0742 3.543 6.7188 5.6953 10.367 7.8516 7.293 4.3125 15.121 7.7148 22.988 10.645l0.03125-0.47266c-3.6484-2.1562-7.293-4.3125-10.434-6.9102-3.6484-2.1562-6.7852-4.7539-9.9258-7.3516-3.1406-2.5938-5.7734-5.6328-8.9453-7.7539-1.7891-1.5469-4.0508-3.1367-4.832-5.5664 0.75 2.8984 1.7656 2.0156 2.8086 0.66797z"/>
  <path d="m218.68 402.51c-0.41797 0.97656-0.85547 1.4766-0.82812 1.9453-1.3008 1.9805-3.1055 3.5078-4.9102 5.043-3.6094 3.0703-7.7773 4.7461-11.945 6.4219-8.3359 3.3516-16.258 5.7344-25.152 7.6992l-0.027344-0.47266c7.8633-3.3242 15.699-7.1211 23.031-11.367 3.6641-2.1211 6.8281-4.6875 10.5-6.8086 2.2773-1.5625 5.0234-3.1523 6.8008-5.1562-3.0352-3.1367-6.0742-6.2695-8.2266-10.41-2.5938-3.6367 8.3828 5.1797 23.082 12.824 11.277 5.9531 24.828 10.348 34.426 12.133 23.008 3.8164 48.977 1.7617 67.07-5.0391 3.7227-1.1758 3.8125 0.24219 4.3984 2.1016 0.55859 1.3867 1.0625 1.832 1.5898 2.75 1.0039 0.88672 2.0352 2.25 3.0352 3.1367 2.5391 2.6914 5.043 4.9102 8.0508 7.5781l0.027344 0.47266c-3.3945-1.2188-6.8203-2.9062-9.7969-5.0977-1.4766-0.85547-2.9492-1.7188-3.9844-3.0781-2.7812 1.1172-5.1133 1.7344-7.9219 2.3828 1.5352 1.8047 2.5938 3.6367 4.1289 5.4414 3.0703 3.6094 6.5781 6.7148 10.562 9.793l-0.44531 0.50391c-4.3984-2.1016-8.3555-4.7109-12.336-7.7891-1.9805-1.3008-3.9844-3.0781-5.5469-5.3555-0.027344-0.47266-0.53125-0.91797-0.55859-1.3867-1.8594 0.58594-3.75 0.69922-6.0859 1.3203 0.53125 0.91797 1.0312 1.3594 1.5625 2.2773 1.0625 1.832 2.1211 3.6641 3.6562 5.4688 2.5938 3.6367 5.6602 7.2461 8.7266 10.855l-0.44531 0.50391c-3.9531-2.6055-7.4648-5.7109-11.008-9.293-1.5352-1.8047-3.5391-3.582-4.625-5.8867-0.53125-0.91797-0.61719-2.3359-1.1758-3.7227-2.3359 0.61719-4.6992 0.76172-7.0625 0.90625 0.50391 0.44531 0.55859 1.3867 1.0625 1.832 1.0625 1.832 2.1211 3.6641 3.1836 5.5 2.1211 3.6641 4.7188 7.3008 7.7812 10.91l-0.44531 0.50391c-3.4805-2.6328-6.9961-5.7383-10.059-9.3477-1.5352-1.8047-3.0703-3.6094-4.1562-5.9141-0.53125-0.91797-0.58594-1.8594-0.67188-3.2812-2.3633 0.14062-5.1992 0.31641-8.0352 0.48828 0.027344 0.47266 0.50391 0.44531 0.53125 0.91797 1.0625 1.832 2.1484 4.1406 3.2383 6.4453 2.1797 4.6133 4.8008 8.7227 7.8984 12.805l-0.44531 0.50391c-3.5391-3.582-7.0781-7.1602-10.172-11.242-1.5625-2.2773-3.0977-4.082-4.2148-6.8633-0.058594-0.94531-0.55859-1.3867-0.61719-2.3359-2.3633 0.14062-4.2539 0.26172-6.6445-0.070312 0.61719 2.3359 0.76172 4.6992 0.90625 7.0625 1.2305 4.668 2.4961 9.8125 3.7266 14.48l-0.47266 0.027344c-2.6523-4.5859-4.832-9.1953-6.5352-13.832-1.0898-2.3047-1.7344-5.1133-1.8789-7.4766-0.027344-0.47266-0.027344-0.47266-0.058594-0.94531-1.8906 0.11328-3.3398-0.26953-5.2266-0.15625 0.058594 0.94531 0.61719 2.3359 0.20313 3.3086 0.14062 2.3633-1.1328 4.8125-1.9609 6.7617-1.6328 4.3711-3.2617 8.7383-5.8672 12.691l-0.47266 0.027344c0.66016-4.7812 1.3438-9.0977 2-13.879 0.32812-2.3906 0.18359-4.7539 0.53906-6.6758 0.41797-0.97656 0.82812-1.9453 1.2188-3.3945-1.918-0.35547-3.3398-0.26953-5.2578-0.62891 0.11328 1.8906-0.26953 3.3398-0.66016 4.7812-0.74219 3.3672-2.9922 5.4023-4.7422 7.8789-3.9648 4.9883-7.9609 9.5-12.488 13.098l-0.50391-0.44531c3.4961-4.957 6.5156-9.8867 9.5039-15.289 1.2734-2.4492 2.0469-5.3438 3.3203-7.7969 0.88672-1.0039 1.2734-2.4492 2.1602-3.4531-1.918-0.35547-3.8398-0.71484-5.7578-1.0703-0.41797 0.97656-0.82813 1.9453-1.2461 2.9219-1.6914 3.4258-4.3789 5.9609-6.6016 8.4688-4.9102 5.043-10.324 9.6406-16.238 13.801l-0.50391-0.44531c4.4375-5.0156 9.3203-10.531 13.262-15.992 2.1914-2.9805 3.4375-5.9023 5.6562-8.4102 0.44531-0.50391 0.88672-1.0039 0.85547-1.4766-2.8945-0.77344-5.3125-1.5742-8.2344-2.8164-0.32812 2.3906-1.6016 4.8398-2.9062 6.8203-2.1602 3.4531-5.3555 5.5469-8.5469 7.6406-5.9141 4.1562-12.332 7.8672-19.281 10.664l-0.027343-0.47266c5.9141-4.1562 11.328-8.7578 16.711-13.828 2.6914-2.5391 4.4102-5.4883 7.1328-7.5547 1.332-1.5078 2.6602-3.0078 3.9961-4.5117-2.4219-0.80078-4.3984-2.1016-6.3477-2.9375-0.80078 2.4219-2.1328 3.9258-3.4375 5.9023-2.6328 3.4805-6.2969 5.6016-9.9688 7.7227-6.8281 4.6875-14.223 7.9844-21.613 11.281l-0.027344-0.47266c3.1914-2.0938 6.8281-4.6875 10.027-6.7773 3.1641-2.5664 6.3594-4.6602 9.5234-7.2227 3.1641-2.5664 5.8281-5.5742 8.5195-8.1133 1.332-1.5078 2.6914-2.5391 4.0273-4.0391-2.4492-1.2734-4.9297-3.0195-7.4062-4.7695 0.027344 0.47266 0.058594 0.94531-0.41797 0.97656-0.80078 2.4219-2.1016 4.3984-3.4375 5.9023-3.1055 3.5078-6.7734 5.6328-10.438 7.7539-7.332 4.2422-15.195 7.5664-23.086 10.422l-0.027344-0.47266c3.6641-2.1211 7.332-4.2422 10.5-6.8086 3.6641-2.1211 6.8281-4.6875 9.9961-7.25 3.1641-2.5664 5.8281-5.5742 9.0234-7.668 1.8047-1.5352 4.082-3.0977 4.8828-5.5156-0.78125 2.9023-1.7852 2.0156-2.8164 0.65625z"/>
 </g>
</svg>
