<?xml version="1.0" encoding="UTF-8"?>
<svg width="752pt" height="752pt" version="1.1" viewBox="0 0 752 752" xmlns="http://www.w3.org/2000/svg">
 <g>
  <path d="m589.7 435.61c-1.2578-14.77-5.0469-29.215-11.203-42.699-5.5195-14.504-13.273-28.059-22.98-40.172-0.40234-0.41016-1.0312-0.50391-1.5391-0.23438-0.50781 0.27344-0.77734 0.84375-0.66406 1.4102 4.4727 13.277 9.9375 26.199 16.355 38.652 6.0664 14.137 11.152 28.676 15.215 43.512 0.71875 2.5156 4.9922 2.4414 4.8164-0.46875z"/>
  <path d="m457.33 393.25c-0.89453-2.1367-0.92578-4.5352-0.085937-6.6914 0.91016-2.6953 2.5742-4.7891 4.1992-4.668 1.7852 0.13281 6.1367 1.8594 6.2031 4.2812v-0.003907c-1.082 4.3008-3.2969 8.2266-6.4219 11.371-1.2461 0.125-3.8945-4.2891-3.8945-4.2891z"/>
  <path d="m435.56 402.11c-0.62891-1.7031-0.54688-3.5859 0.23438-5.2227 0.85938-2.0352 2.3008-3.543 3.6133-3.332 1.4414 0.23438 4.8867 1.9023 4.832 3.7891-1.0781 3.2812-3.0625 6.1875-5.7227 8.3906-1.0195 0.011719-2.957-3.625-2.957-3.625z"/>
  <path d="m414.2 412.14c-0.60547-1.6328-0.52344-3.4375 0.22266-5.0078 0.82422-1.9492 2.207-3.3984 3.4648-3.1953 1.3828 0.22656 4.6875 1.8242 4.6328 3.6367-1.0312 3.1484-2.9336 5.9375-5.4844 8.0508-0.97266 0.003906-2.8359-3.4844-2.8359-3.4844z"/>
  <path d="m383.61 428.34c-0.27734-1.6719 0.12891-3.3906 1.1289-4.7578 1.1445-1.7227 2.7344-2.8555 3.9023-2.4297 1.2852 0.46875 4.1602 2.6016 3.7773 4.3281-0.375 1.6875-5.7031 6.9023-6.7266 6.7148-0.92969-0.17578-2.082-3.8555-2.082-3.8555z"/>
  <path d="m358.62 347.48c-3.625 5.4414-7.6602 10.598-12.066 15.426-1.1211-4.1836-3.75-7.8086-7.3789-10.176-1.2617-0.78516-2.3945 1.1172-1.1953 1.957 2.5781 1.9727 4.125 5.0117 4.1992 8.2578 0.09375 1.9453-0.18359 3.8867-0.80859 5.7305-3.8086 4.1836-7.6211 8.3828-11.188 12.852-1.4883 1.8633-2.9297 3.7578-4.3555 5.6641l-0.003906-0.003906c4.6523-9.7969 7.5859-20.324 8.6641-31.117-0.007812-0.78516-0.57812-1.4453-1.3516-1.5703-0.77344-0.125-1.5273 0.32422-1.7812 1.0664-3.6719 15.078-8.5 29.852-14.449 44.188-3.9531 5.8281-7.7891 11.738-11.688 17.637-8.1289 12.309-20.977 18.191-30.082 29.328v0.003906c-4.9258 5.3594-7.1133 12.691-5.9297 19.875-0.70703-0.19922-1.4609 0.078126-1.875 0.68359-3.75 7.9258-4.168 17.027-1.1602 25.262 2.0547 11.664 4.0664 23.277 5.3984 35.047 0.16016 1.4102 2.5156 1.1719 2.4727-0.24219-0.26172-8.8633-0.54297-17.926-1.6484-26.73v0.003906c-2.6055-9.8555-3.4336-20.094-2.4414-30.238 0.69141 2.875 1.668 5.8945 2.7656 9.1562 0.29297 0.875 1.8672 0.91797 1.7617-0.17188l0.003906-0.003906c-1.7305-6.832-2.1133-13.938-1.1328-20.918 3.3125-7.6953 8.9219-14.18 16.062-18.562 9.5898-7.7773 17.688-17.23 23.895-27.902 8.0625-12.066 17.301-23.305 27.574-33.551 9.582-7.7695 17.211-17.68 22.277-28.93 0.3125-1.1914-0.28516-2.4336-1.4141-2.9375-1.125-0.5-2.4492-0.10938-3.125 0.91797z"/>
  <path d="m385.68 369.94c-6.8672 4.2617-14.18 7.7656-21.809 10.441 8.3867-8.7305 14.41-21.242 5.0938-31.645-1.0117-1.1289-3.332-0.085937-2.7695 1.4766 1.8555 5.5273 2.0938 11.473 0.68359 17.129-1.4102 5.6602-4.4102 10.797-8.6406 14.805-1.5352 0.42578-3.082 0.82031-4.6562 1.168-8.7344 1.0938-16.793 5.2617-22.73 11.758-15.141 18.172-26.863 39.477-40.395 58.828-0.8125 1.1602 1.0352 2.2539 1.8672 1.1367 13.938-18.695 27.871-38.086 42.824-55.969 7.6211-9.1133 18.707-9.043 29.246-12.457l-0.003906 0.003907c8.707-2.8125 16.695-7.4922 23.406-13.711 1.5-1.3672-0.3125-4.0664-2.1172-2.9648z"/>
  <path d="m435.96 433.19c-11.262-0.99609-22.555 1.5391-32.316 7.25-6.332 2.6445-12.293 6.1055-17.73 10.293-4.0312 3.1562-8.5586 5.625-13.398 7.3047-7.0625 1.9883-17.262 0.40625-20.059-7.1406v-0.003907c-0.59375-7.793 1.1289-15.586 4.957-22.402v-0.007813c5.1406-5.125 10.551-12.578 17.445-13.934 4.3438-0.29297 8.6875 0.57422 12.582 2.5117 3.8984 1.9336 7.2148 4.8711 9.6055 8.5039 1.2734 1.4922 3.1641-0.28516 2.582-1.8398-2.2422-5.6484-6.7188-10.113-12.371-12.336 1.3594-0.73828 2.6445-1.6094 3.8359-2.5977 6.4219-5.2344 10.859-9.9766 19.852-9.4141 1.6602 0.10156 2.5664-2.4609 0.96484-3.2383v0.003906c-2.5742-1.3477-5.4922-1.8906-8.3789-1.5703-2.8867 0.32422-5.6094 1.5-7.8242 3.3828-4.6211 3.457-7.9883 9.5273-13.344 11.988-1.9141-0.36328-3.8633-0.49219-5.8086-0.38281-2.4258 0.17188-4.7891 0.82422-6.9609 1.9219 6.7891-5.2461 13.027-11.168 18.621-17.676 4.5234-4.7031 6.3242-11.398 4.7656-17.738-0.15625-0.60937-0.76953-0.97656-1.3828-0.83984-0.60938 0.14062-1 0.74219-0.87891 1.3555 1.043 9.2344-8.1719 15.535-14.027 20.918-3.8477 3.5391-7.707 7.0859-11.305 10.883 0.003907-1.9883-0.32422-3.9648-0.96875-5.8477-0.41406-1.2305-2.3789-1.2422-2.3945 0.23438h-0.003906c-1.5898 8.6914-5.0781 16.93-10.211 24.121-2.6172 5.6055-4.0898 11.68-4.3242 17.863-0.65625 5.3945 0.13281 10.867 2.2852 15.859 2.1523 4.9922 5.5898 9.3203 9.9648 12.547 1.1562 0.65625 2.6172 0.38281 3.457-0.64844 0.83594-1.0352 0.80469-2.5234-0.078125-3.5195-1.5703-1.9844-3.2656-3.8242-4.8438-5.7266h0.003906c3.2266 1.4766 6.7891 2.0742 10.32 1.7305 7.4023-0.99219 14.355-4.1055 20.027-8.9648-4.4141 7.6719-11.777 13.199-20.371 15.293-1.1758 0.1875-1.3047 2.1914-0.074219 2.3984h-0.003906c5.0781 0.29297 10.137-0.87109 14.574-3.3594 4.4375-2.4844 8.0703-6.1914 10.469-10.676 4.7227-7.4453 11.531-13.34 19.574-16.953 7.543-3.0352 15.445-5.082 23.516-6.082 2.1016-0.25 1.5156-3.2617-0.34375-3.4648z"/>
  <path d="m442.47 448.51c-18.246 13.012-32.441 30.91-40.957 51.637-5.4883 8.6484-9.2656 18.273-11.129 28.348-1.5195 13.082-1.4727 26.297 0.14062 39.367 0.32031 2.4102 3.6836 1.7031 3.9492-0.38281 1.4219-11.238 0.62109-22.73 1.2539-34.031v-0.003907c1.6094-11.668 5.875-22.809 12.473-32.566 4.4844-8.4102 9.3984-16.582 14.727-24.484 6.3516-9.25 14.324-16.645 21.48-25.168 1.1484-1.375-0.13281-3.6484-1.9375-2.7148z"/>
  <path d="m550.44 481.95c-14.336-7.4766-26.988-18.504-41.738-25.004-7.4961-2.9336-15.359-4.8203-23.371-5.6094-10.859-1.5781-21.57-4.0703-32.012-7.4414-1.3242-0.42578-2.2812 1.5977-1.0078 2.2734 7.6602 4.1055 15.797 7.2617 24.227 9.3906 10.047 1.5195 19.922 4.0078 29.488 7.4219 14.578 6.7734 26.215 20.328 42.133 24.117 2.9648 0.70703 5.2852-3.582 2.2812-5.1484z"/>
  <path d="m539.96 355.59c-12.293-5.2695-25.012-9.4883-38.016-12.605-10.414-4.3359-22.062-4.6523-32.699-0.89453-13.363 4.2266-26.477 9.2227-39.27 14.953-12.93 5-30.605 13.234-37.289-0.50391-0.69531-1.4297-2.8203-0.28516-2.1719 1.1445 5.6758 12.469 15.859 11.664 26.258 7.9805h0.003906c-3.0859 2.582-5.8125 5.5586-8.1172 8.8555-0.25391 0.44922-0.14844 1.0156 0.25391 1.3438 0.40234 0.32422 0.98047 0.3125 1.3672-0.03125 17.352-13.77 37.562-23.48 59.156-28.422 5.7539-2.75 12.281-3.4336 18.48-1.9336 6.2031 1.625 12.312 3.9062 18.469 5.7227 10.582 3.5898 21.441 6.3047 32.465 8.1211 0.90234 0.007813 1.6992-0.58594 1.957-1.4492 0.25391-0.86328-0.089844-1.793-0.84766-2.2812z"/>
  <path d="m547.73 347.84c-14.25-5.6328-28.391-11.293-43.027-15.895-10.586-4.3672-21.949-6.5312-33.398-6.3555-3.4453 0.39844-6.8516 1.0781-10.188 2.0352-22.895 1.9883-46.148 3.5312-69.086 3.3984v-0.003906c-0.625 0.019531-1.1289 0.52344-1.1484 1.1523-0.019531 0.625 0.44922 1.1602 1.0742 1.2188 17.656 1.6836 35.438 1.625 53.078-0.18359-3.5977 1.3672-7.1797 2.7148-10.766 3.8516-9.4727 3.0039-19.145 5.4258-28.645 8.3555-5.3555 0.46484-10.676-1.2109-14.801-4.6641-0.91797-0.78125-2.2969 0.42578-1.3984 1.3164 2.6875 2.707 6.0898 4.5859 9.8086 5.4258l-3.9844 1.4062c-1.4258 0.53125-0.40625 2.4453 0.85156 2.3047 12.355-1.5234 24.547-4.1445 36.438-7.8281 11.695-4.5039 23.609-8.418 35.699-11.727 13.566-0.70312 27.086 2.0977 39.254 8.1367 12.988 4.25 26.168 7.5352 39.371 10.969h0.003907c0.78516 0.19141 1.582-0.26953 1.8125-1.0469 0.23047-0.77344-0.18359-1.5938-0.94922-1.8672z"/>
  <path d="m493.95 359.92c-5.4414 4.168-11.469 7.5195-17.887 9.9453-6.1992 1.9453-12.531 3.4336-18.949 4.4492-2.1406-0.30078-4.3047-0.42969-6.4648-0.38672-3.3711 0.30859-6.6016 1.5117-9.3555 3.4805-8.332 3.9102-17.789 4.7305-26.672 2.3086-1.1797-0.45312-2.0117 1.4219-0.90234 2.0312 1.2305 0.66406 2.5078 1.2344 3.8203 1.7031-3.2227 1.1602-6.2266 2.8516-8.8828 5.0117-1.1055 0.87891 0.21484 2.5977 1.4141 1.9805l-0.003906-0.003906c7.9414-4.9609 17.855-5.5742 26.348-1.625 5.0352 2.8164 8.4688 7.0625 14.586 6.7109 0.89844-0.003906 1.6641-0.65625 1.8047-1.543 0.14453-0.89062-0.37891-1.75-1.2305-2.0352-5.8242-2.5586-10.91-6.3906-16.766-8.4766l0.03125-0.011718v0.003906c0.98047-0.23438 1.9375-0.55469 2.8633-0.94531 2.957-1.0703 5.9219-2.4102 8.9258-3.8281l0.22266-0.0625c9.3203-0.082031 18.605 1.0859 27.613 3.4688 0.77734 0 1.4375-0.5625 1.5625-1.3281 0.12109-0.76562-0.32813-1.5078-1.0664-1.75-2.4219-0.86719-5.0508-1.7305-7.7539-2.5039 3.3984-0.49609 6.7578-1.1953 9.9375-1.9336v-0.003906c7.3516-1.9023 13.91-6.0859 18.738-11.945 1.293-1.3008-0.23828-3.7031-1.9336-2.7109z"/>
  <path d="m397.6 430.48c-3.8789 3.0586-8.7422 4.5898-13.672 4.3008-4.9297-0.28906-9.5859-2.375-13.078-5.8633-0.90625-1.0195-2.7891 0.24609-2 1.4258 3.0938 5.8008 8.9648 9.5859 15.523 10.008 6.1211 0.44531 12.023-2.3945 15.496-7.4531 0.38281-0.66406 0.28516-1.4961-0.23828-2.0508-0.52344-0.55859-1.3477-0.70703-2.0312-0.36719z"/>
  <path d="m452.07 402.37c0-0.78516-0.51562-1.4766-1.2695-1.6992-0.75-0.22266-1.5586 0.070312-1.9883 0.72656-1.6094 2.9766-3.8555 5.5664-6.5742 7.5781-2.918 1.4531-6.332 1.5234-9.3047 0.19141-1.1172-4.332-7.6562-6.3672-10.949-8.5039-1.1367-0.73438-2.582 0.95312-1.5312 1.8867 2.2969 1.6172 4.3359 3.5742 6.0547 5.8008 2.1602 4.3086-0.70703 7.1992-4.4961 9.0273-7.6133 1.9844-15.668 1.4375-22.945-1.5625-1.793-0.36328-3.1992 2.1055-1.3828 3.1172 4.4766 3.2227 9.8398 4.9766 15.355 5.0195s10.906-1.625 15.434-4.7773c1.8672-1.7031 3.3047-3.8281 4.1914-6.1992 3.9336 2.0859 8.6523 2.0547 12.559-0.078125 3.9062-2.1367 6.4805-6.0898 6.8477-10.527z"/>
  <path d="m478.04 385.2c-0.44531-0.77734-1.3398-1.168-2.2109-0.96875-0.86719 0.20313-1.5 0.94922-1.5586 1.8398-0.42188 3.8594-1.7852 7.5586-3.9688 10.773-2.2891 3.6953-7.2578 8.5781-12.137 5.9688v-0.003906c-0.58594-0.32813-1.3242-0.13672-1.6719 0.43359-0.34766 0.57422-0.17969 1.3203 0.37891 1.6875 2.4297 1.9219 5.543 2.7617 8.6055 2.3203 3.0664-0.44141 5.8164-2.1289 7.6016-4.6602 3.7383-4.1719 8.7852-11.945 4.9609-17.391z"/>
  <path d="m529.51 421.66c-2.4922 0.46484-5.0078 0.76563-7.5391 0.89453 1.9414-1.3477 3.5703-3.0938 4.7812-5.125 2.1055-3.5156 2.793-7.7031 1.9297-11.707-0.86328-4.0078-3.2148-7.5352-6.582-9.8711-1.1875-0.99219-2.9375 0.50781-1.8086 1.6992h0.003907c1.7891 2.3672 2.8555 5.2031 3.0742 8.1641s-0.42188 5.9219-1.8438 8.5273c-1.7539 2.6836-4.2656 4.7852-7.2148 6.0391-2.9531 1.2539-6.207 1.6055-9.3555 1.0078-0.35156-0.066407-0.71094-0.023438-1.0391 0.12109-4.3477-0.66406-8.6836-1.4922-13.039-2.2773h0.003906c3.0898-1.0078 5.9141-2.6953 8.2695-4.9336 2.9062-2.6094 4.9883-6.0117 5.9922-9.7852 5.293-1.7109 9.5781-5.6445 11.734-10.773 3.0391-6.2227 3.1016-13.484 0.16406-19.758-2.9375-6.2695-8.5586-10.875-15.285-12.52-0.52734-0.14063-1.082 0.082031-1.3672 0.54687-0.28906 0.46484-0.23438 1.0586 0.125 1.4688 7.1211 8.2422 15.66 14.895 10.34 27.125-5.168 11.891-18.629 10.684-29.281 8.8789-1.5039-0.25391-2.918 1.9531-1.2109 2.7305l0.003906 0.003906c5.7852 2.6836 12.148 3.9023 18.516 3.5469-0.90625 1.957-2.0703 3.7812-3.4648 5.4258-2.8516 3.4453-6.7383 5.875-11.082 6.9336-5.6758-0.96875-11.426-1.4297-17.184-1.3789-11.57 0.26172-28.621 5.3828-25.113 20.332 0.28906 1.2383 2.3945 1.1289 2.2891-0.22266-1.6289-21.137 38.652-12.84 49.77-10.363 11.891 4.7695 25.207 4.5195 36.91-0.69531 0.92578-0.53516 1.3281-1.6523 0.95703-2.6523-0.37109-1-1.4102-1.5859-2.4531-1.3828z"/>
  <path d="m387.19 337.78c-9.6758-11.645-21.586-21.234-35.031-28.203-14.887-8.5391-28.969-18.406-42.082-29.48-23.953-24.203-43.941-52.027-59.227-82.457-0.51562-0.90234-1.6484-1.2344-2.5664-0.75-0.91797 0.48438-1.2852 1.6094-0.83203 2.543 13.238 31.02 31.738 59.52 54.688 84.234 11.867 10.707 24.883 20.07 38.809 27.918 14.984 8.9883 28.625 19.613 43.262 28.996 1.6602 1.0625 4.1992-1.0234 2.9805-2.8008z"/>
  <path d="m303.52 415.52c-0.30078-7.4922-3.1641-14.695-3.9219-22.238-0.66406-6.6094-1.6875-13.152-2.4258-19.742-0.16406-1.4688-2.4805-1.168-2.5273 0.24609-0.12891 3.9219-0.48828 8.0781-0.74609 12.293-14.352-22.676-32.258-42.898-53.031-59.887-27.344-26.277-55.641-51.43-84.895-75.449-1.2461-1.0195-3.1133 0.58203-1.8867 1.7695 25.91 25.098 51.805 50.223 77.676 75.375 11.734 11.434 23.586 22.801 34.848 34.703l0.003907 0.003906c9.8711 10.906 18.93 22.52 27.109 34.742 0 7 2.168 13.824 6.2031 19.543 0.58203 0.59375 1.4609 0.78516 2.2383 0.49219 0.78125-0.29297 1.3086-1.0195 1.3555-1.8516z"/>
  <path d="m397.54 372.82c0.20703-1.168-0.10156-2.3672-0.84766-3.293-0.74609-0.92188-1.8555-1.4766-3.043-1.5156-4.3555-0.20312-8.6289 1.2422-11.965 4.0508-3.207 2.3008-6.2031 4.8789-8.9531 7.707l-0.37891 0.50391c-1.6875 1.5117-0.65625 3.832 1.6953 4.8984v0.003906c5.2031 1.5508 10.828 0.66406 15.301-2.4102 4.0234-1.9961 7.0039-5.6133 8.1914-9.9453z"/>
  <path d="m368.44 345.82c-0.39453-1.1211-1.2539-2.0156-2.3594-2.4492-1.1055-0.4375-2.3438-0.37109-3.3984 0.17578-3.8867 1.9688-6.8906 5.332-8.4141 9.418-1.6562 3.582-2.9922 7.3047-3.9922 11.121l-0.082032 0.625c-0.72266 2.1445 1.3164 3.6562 3.8906 3.4297 5.2891-1.2148 9.7461-4.7539 12.121-9.6328 2.5195-3.7188 3.332-8.332 2.2344-12.688z"/>
  <path d="m340.68 350.39c-0.625-0.92578-1.6211-1.5352-2.7305-1.6719-1.1055-0.13281-2.2188 0.21875-3.0469 0.96484-3.0781 2.7148-5.0156 6.4922-5.4336 10.574-0.66016 3.6523-0.99609 7.3594-1.0039 11.074l0.074219 0.58984c-0.15234 2.125 2.0664 3.0195 4.3555 2.1992v0.003906c4.5352-2.3594 7.7539-6.6445 8.7617-11.652 1.4141-3.9844 1.0547-8.3789-0.97656-12.082z"/>
  <path d="m389.03 358.28c-0.89062-0.71094-1.4258-1.7734-1.4727-2.9141-0.042969-1.1406 0.40625-2.2422 1.2383-3.0234 3.0195-2.9023 7.0195-4.5625 11.207-4.6484 3.7734-0.36719 7.5742-0.39844 11.352-0.09375l0.59375 0.125c2.1797 0.023438 2.8984 2.3555 1.875 4.6133h0.003907c-2.7773 4.4141-7.4023 7.332-12.582 7.9375-4.168 1.1055-8.6133 0.38281-12.215-1.9961z"/>
  <path d="m408.86 382.56c-1.0898-0.32422-1.9922-1.1055-2.4648-2.1406-0.47266-1.0391-0.46875-2.2305 0.003907-3.2695 1.6992-3.8281 4.7812-6.875 8.625-8.5352 3.3555-1.7656 6.8594-3.2344 10.473-4.3789l0.59766-0.10938c2.0234-0.80078 3.5742 1.082 3.4805 3.5625-0.90625 5.1328-4.082 9.582-8.6484 12.102-3.4414 2.6016-7.832 3.6094-12.066 2.7695z"/>
  <path d="m442.57 442.59c-0.9375-0.94141-1.4219-2.2461-1.3281-3.5703 0.097657-1.3281 0.76562-2.5508 1.8281-3.3477 3.8789-2.9766 8.7383-4.3789 13.605-3.9336 4.4258 0.0625 8.8359 0.51953 13.18 1.3633l0.67188 0.22266c2.5195 0.30859 3.0586 3.1094 1.5742 5.5977l0.003906-0.003906c-3.793 4.7617-9.5391 7.5469-15.629 7.5781-4.9766 0.73828-10.039-0.67969-13.906-3.9062z"/>
  <path d="m446.85 442.69c2.2852 0.83984 3.3555 3.4766 2.082 6.7383h0.003906c-2.2617 4.4102-6.0547 7.8398-10.668 9.6484-3.9336 1.8633-8.0273 3.3594-12.23 4.4727l-0.67969 0.085938c-2.3555 0.80859-3.8594-1.5938-3.4492-4.5859v0.003907c1.543-6.0352 5.5938-11.117 11.129-13.969 4.0039-2.8477 9.0859-3.7305 13.812-2.3945z"/>
  <path d="m385.18 336.8c-0.54688-0.73828-0.74609-1.6797-0.54688-2.5781 0.19922-0.89453 0.77734-1.6641 1.5859-2.1016 2.9492-1.6445 6.4062-2.1133 9.6875-1.3203 3.0195 0.48828 5.9883 1.2422 8.8711 2.2539l0.4375 0.21875c1.6914 0.46484 1.7773 2.4297 0.51562 3.9766l-0.003906 0.003906c-3.0703 2.8711-7.2734 4.1953-11.434 3.6094-3.4766 0.003906-6.793-1.4727-9.1133-4.0625z"/>
  <path d="m496.71 358.62c-4.8203-0.51953-9.5508 1.5703-12.41 5.4844-2.7188 3.6523-5.1914 7.4883-7.3945 11.473-0.22656 0.37891-0.23438 0.84375-0.023437 1.2305 0.20703 0.38672 0.60547 0.63672 1.043 0.65234 3.8359-0.33203 7.3125-2.3945 9.4492-5.5977 2.8477-3.7734 6.2656-7.0781 10.133-9.8008 0.71094-0.40234 1.0703-1.2227 0.88672-2.0156-0.1875-0.79688-0.87109-1.375-1.6836-1.4258z"/>
 </g>
</svg>
