<?xml version="1.0" encoding="UTF-8"?>
<svg width="752pt" height="752pt" version="1.1" viewBox="0 0 752 752" xmlns="http://www.w3.org/2000/svg">
 <path d="m156.51 181.67c-1.3008 0-2.3594-1.0547-2.3594-2.3594 0-1.3008 1.0547-2.3594 2.3594-2.3594 8.2617 0.023437 20.281-0.91406 34.18-2 50.293-3.9336 124.92-9.7656 145.22 21.227 12.629 19.277 12.809 36.352 13.188 72.863 0.0625 5.918 0.12891 12.359 0.25781 19.461 0.25 13.793 0.32422 27.465 0.39844 40.598 0.10547 18.805 0.20312 36.504 0.80078 51.969 5.1016 6.3594 10.629 13.422 16.391 20.785 34.273 43.805 76.992 98.406 123.68 121.65 13.352 6.6484 20.871 13.215 27.316 18.844 3.8477 3.3594 7.293 6.3711 11.371 8.793 5.6016 3.3242 10.004 4.9375 13.688 5.4727 3.5469 0.51562 6.4688 0.023437 9.1914-0.87891 7.918-2.625 14.281-1.0664 18.035 2.2734 1.5938 1.418 2.7227 3.1562 3.3242 5.0508 0.60547 1.918 0.66797 3.9805 0.11328 6.0234-1.2227 4.5117-5.4688 8.8828-13.512 11.035-28.289 7.5703-38.129 4.0117-48.176 0.37891-8.8828-3.2148-17.941-6.4883-42.52-0.88281-13.23 3.0195-21.133 2.0625-26.07-2.4805-4.8906-4.5-6.4375-12.18-7.1445-22.805-1.5078-22.758-30.059-40.039-49.492-51.805-2.9492-1.7852-5.6914-3.4453-8.125-4.9922 2.6875 11.762 4.8477 20.812 14.996 27.512 6.9844 4.6133 10.152 10.352 10.336 15.355 0.085938 2.3008-0.44922 4.4492-1.5195 6.2891-1.0781 1.8477-2.6914 3.3711-4.7695 4.418-4.4727 2.2539-11.125 2.2344-19.023-1.8359-13.516-6.9648-19.082-13.328-24.766-19.828-7.6641-8.7656-15.547-17.781-45.688-29.066-17.141-6.418-16.699-19.008-12.293-30.773 1.8555-4.9531 4.3867-9.6367 6.5234-13.59 1.2695-2.3477 2.3906-4.4219 3.0859-6.0195-23.258-16-38.078-33.078-51.215-48.211-22.609-26.051-40.102-46.199-87.934-43.922-1.3008 0.0625-2.4102-0.94531-2.4688-2.2461-0.0625-1.3008 0.94531-2.4102 2.2461-2.4688 50.117-2.3867 68.266 18.52 91.727 45.551 12.711 14.645 27.02 31.129 49.035 46.527 3.3398-16.77-5.1641-38.184-15.48-64.156-8.4492-21.27-18.082-45.531-23.559-73-4.8789-4.4219-12.777-11.117-22.984-17.605-10.406-6.6133-23.172-12.98-37.48-16.398-15.562 3.4062-30.832 5.293-44.09 5.293-1.3086 0-2.3672-1.0586-2.3672-2.3672 0-1.3086 1.0586-2.3672 2.3672-2.3672 20.195 0 45.199-4.4922 68.656-12.113 11.523-3.7422 22.66-8.2344 32.648-13.309 0.32812-0.31641 0.75-0.53906 1.2148-0.62109 8.5977-4.4492 16.305-9.332 22.625-14.547 1.0078-0.82812 2.4922-0.68359 3.3203 0.32422s0.68359 2.4922-0.32422 3.3203c-6.4453 5.3164-14.25 10.289-22.926 14.82-3.0234 50.516 13.688 92.602 27.285 126.83 11.363 28.609 20.598 51.855 14.75 70.668-0.66797 2.1484-2.1836 4.9531-3.9727 8.2617-2.082 3.8516-4.5469 8.4102-6.2656 13-3.5586 9.5039-3.9922 19.648 9.5195 24.707 31.266 11.707 39.547 21.176 47.594 30.379 5.3789 6.1523 10.648 12.18 23.379 18.738 6.3906 3.293 11.488 3.4531 14.73 1.8164 1.2305-0.62109 2.1836-1.5117 2.8086-2.5859 0.63281-1.082 0.94141-2.3555 0.89062-3.7344-0.13281-3.6094-2.6484-7.8984-8.2266-11.582-11.836-7.8125-14.117-17.801-17.086-30.82-0.40234-1.7539-0.8125-3.5664-1.1836-5.0938-4.7852-19.887-9.832-33.527-14.172-45.258-4.9336-13.344-8.9688-24.25-10.785-39.246-2.4297-20.078-2.5859-48.25-2.7578-79.445-0.070313-13.094-0.14844-26.723-0.39844-40.543-0.12891-7.0508-0.19531-13.535-0.25781-19.496-0.37109-35.547-0.54297-52.168-12.43-70.309-18.77-28.648-91.734-22.941-140.91-19.098-13.906 1.0859-25.93 2.0273-34.531 2zm313.07 179.05v-12.363h109.66v78.262c0 4.1328-1.6875 7.8906-4.4102 10.609-1.5742 1.5742-3.4961 2.8047-5.6406 3.5625-0.86719 2.5312-2.5 4.7031-4.6133 6.2305-2.1055 1.5234-4.6836 2.4219-7.457 2.4219h-65.414c-2.7344 0-5.2812-0.87891-7.375-2.3672-2.1406-1.5234-3.793-3.6914-4.6758-6.2148l0.089843-0.03125c-2.1875-0.75391-4.1484-1.9961-5.75-3.6016-2.7227-2.7227-4.4102-6.4766-4.4102-10.609zm104.92 0v-7.6289h-100.18v7.6289zm-89.105 80.918c0.47656 0.60547 1.043 1.1406 1.6719 1.5898 1.3047 0.92969 2.9062 1.4805 4.6367 1.4805h65.414c1.7461 0 3.3633-0.5625 4.6797-1.5156 0.61328-0.44141 1.1602-0.96484 1.625-1.5547zm89.105-76.184h-100.18v61.164c0 2.8242 1.1562 5.3984 3.0234 7.2617 1.8672 1.8672 4.4375 3.0234 7.2617 3.0234h79.613c2.8242 0 5.3984-1.1562 7.2617-3.0234 1.8672-1.8672 3.0234-4.4375 3.0234-7.2617zm-139.49-45.945c0.99219-0.84766 2.4805-0.73047 3.3281 0.25781 0.84766 0.99219 0.73047 2.4805-0.25781 3.3281l-8.4766 7.25c-1.8906 1.6172-3.957 2.2422-5.9258 2.1484-2.2305-0.10547-4.2812-1.1445-5.7852-2.6953-0.91016-0.93359-0.88672-2.4297 0.046875-3.3398 0.93359-0.91016 2.4297-0.88672 3.3398 0.046875 0.71094 0.73438 1.6445 1.2227 2.6211 1.2695 0.83203 0.039062 1.7383-0.25781 2.6328-1.0195l8.4766-7.25zm-23.504 18.488c-0.078125-0.085938-0.1875-0.21094-0.32422-0.37109-2.2539-2.6367-3.6523-6.0234-3.6523-9.5391 0-3.5625 1.4141-7.207 4.7812-10.273 0.10547-0.09375 0.24219-0.21875 0.41797-0.36719l20.965-17.934 0.74609-0.070313c3.1445-0.29688 5.4531 0.11719 7.2812 0.96094l69.719-59.641c1.7305-1.4805 3.8242-2.0781 5.8945-1.918 2.0938 0.16406 4.1523 1.1055 5.7383 2.6914l0.69531 0.69531v0.11719c1.1719 1.5625 1.6328 3.457 1.4727 5.3164-0.16797 1.9492-1.0312 3.8789-2.4805 5.3281l-0.003906-0.003907c-0.15625 0.15625-0.31641 0.30469-0.47656 0.44531l-68.031 58.195c2.5508 1.9102 3.0742 3.543 1.5273 6.1367-0.89453 1.5-2.7617 3.0742-5.6836 5.5352-0.48047 0.40625-1.0078 0.84766-2.3672 2.0117l-16.449 14.07c-3.2578 2.7891-4.6875 4.0117-3.1328 9.0469 0.03125 0.10547 0.16016 0.44141 0.33594 0.91016 1.0586 2.8008 3.668 9.7227 3.5586 15.52-0.10938 5.6133-2.457 10.137-9.8789 9.9922-7.7422-0.14844-9.9023-5.2188-9.7852-11.137 0.10937-5.6953 2.5352-12.074 3.4648-14.516h0.003907l0.26562-0.69531c1.6328-4.7266-0.11719-6.3047-2.2539-8.2344-0.75781-0.68359-1.5469-1.3984-2.3477-2.2734zm34.062-34.668c0.73047 0.79688 1.4062 1.6562 2.0859 2.5273 0.80469 1.0273 1.625 2.0742 2.5938 2.9766l68.957-58.988c0.074219-0.066406 0.14453-0.12891 0.20703-0.1875v-0.007812c0.64844-0.64844 1.0352-1.5117 1.1094-2.3867 0.070313-0.8125-0.13281-1.6133-0.64844-2.2188-0.046876-0.058594-0.09375-0.10938-0.14063-0.15234l-0.003906-0.003906-0.003906 0.003906c-0.78516-0.78516-1.7656-1.25-2.7422-1.3242-0.87891-0.066406-1.7578 0.17578-2.4688 0.78906l-68.945 58.977zm-30.801 31.227c0.046875 0.054687 0.125 0.14062 0.23047 0.26172 0.63281 0.69531 1.3398 1.332 2.0117 1.9414 3.4102 3.0781 6.2031 5.6016 3.5508 13.285-0.12109 0.34766-0.19922 0.55859-0.30469 0.83203v0.007812c-0.85156 2.2422-3.0781 8.0898-3.168 12.906-0.066406 3.375 1.0664 6.2656 5.1445 6.3438 3.8203 0.074219 5.0273-2.3477 5.0859-5.3516 0.09375-4.8867-2.293-11.219-3.2617-13.781-0.19531-0.52344-0.33984-0.90234-0.42969-1.1875-2.4727-7.9961-0.32031-9.8359 4.5742-14.023l16.449-14.07c0.36719-0.3125 1.4336-1.2109 2.4062-2.0312 2.5391-2.1406 4.1602-3.5078 4.6641-4.3516 0.050781-0.085938-0.66406-0.25391-2.2188-1.1797-2.5273-1.5078-4.0703-3.4805-5.5703-5.3945-1.9531-2.5-3.8008-4.8555-8.3281-4.6719l-19.809 16.945c-0.074218 0.0625-0.17578 0.15234-0.30859 0.27344-2.2891 2.082-3.2461 4.4766-3.2461 6.7773 0 2.3477 0.96484 4.6484 2.5234 6.4688zm-63.84 54.551c0.375 6.875 0.87891 13.215 1.5664 18.902 1.7461 14.441 5.6953 25.113 10.523 38.172 4.2812 11.574 9.2461 24.996 14.039 44.641 3.125 2.2109 7.3594 4.7773 12.141 7.668 20.289 12.281 50.094 30.324 51.766 55.539 0.62891 9.457 1.8711 16.168 5.625 19.625 3.7109 3.4141 10.309 3.9844 21.832 1.3516 25.922-5.9141 35.637-2.3984 45.164 1.0469 9.332 3.375 18.477 6.6836 45.344-0.50781 6.1719-1.6523 9.3398-4.6719 10.164-7.7031 0.3125-1.1445 0.27734-2.2969-0.058594-3.3594-0.34375-1.0859-1.0078-2.1016-1.9531-2.9414-2.6172-2.3281-7.3047-3.332-13.41-1.3125-3.332 1.1055-6.9297 1.7031-11.336 1.0625-4.2695-0.62109-9.25-2.418-15.43-6.082-4.4219-2.625-8.0391-5.7852-12.074-9.3125-6.2148-5.4297-13.465-11.762-26.316-18.16-47.613-23.707-90.715-78.793-125.29-122.98-4.207-5.3789-8.2852-10.59-12.301-15.648zm-84.438-88.527c-2.3984-14.359-3.5859-29.562-2.8359-45.645-9.4023 4.5664-19.664 8.6289-30.23 12.059-5.4688 1.7773-11.02 3.3828-16.578 4.8086 11.52 3.7344 21.852 9.1094 30.562 14.648 7.7266 4.9141 14.195 9.9727 19.082 14.129z"/>
</svg>
