<?xml version="1.0" encoding="UTF-8"?>
<svg width="752pt" height="752pt" version="1.1" viewBox="0 0 752 752" xmlns="http://www.w3.org/2000/svg">
 <path d="m602.15 423.59c1.7383 0.066406 3.0898 1.5312 3.0234 3.2695-0.066406 1.7383-1.5312 3.0898-3.2695 3.0234-23.852-0.96484-40.965-8.8906-59.621-20.469-2.6328-1.1406-6.4805-2.9375-10.633-4.875-6.832-3.1875-14.523-6.7812-20.262-8.957-3.043-1.1562-5.3672-1.9688-7.4844-2.3086-1.9883-0.32031-3.9609-0.23438-6.4805 0.35547-7.5039 1.7617-13.652 3.2852-19.301 4.6875-18.824 4.668-32.246 7.9961-56.027 10.598-2.9492 0.32422-4.5469 0.59375-5.6133 1.1445-1.0117 0.51953-1.9688 1.5508-3.5859 3.3594-11.578 12.957-23.184 25.895-34.785 38.832-4.7969 5.3477-9.5938 10.691-14.387 16.043 4.5703 4.9023 3.2969 9.75-0.22656 14.168-2.1445 2.6875-5.1758 5.0703-7.9883 7.1211 2.8672 0.36719 5.8047-0.10156 8.8945-1.3008 5.0977-1.9766 10.645-5.8984 16.918-11.324 3.4336-2.9688 7.6758-7.1172 12.07-11.613 4.5625-4.668 9.082-9.4922 13.035-13.762 2.0273-2.1953 1.2578-1.3672 1.5391-1.668 5.6602-6.0742 9.9414-10.672 10.246-17.141 0.082031-1.7383 1.5547-3.0781 3.293-2.9961 1.6094 0.074218 2.8789 1.3477 2.9922 2.918 2.7852-1.9258 5.9141-3.2852 10.289-3.9688l17.27-2.6953c3.0703-0.48047 6.2344-0.79688 9.5078-1.125 11.23-1.125 23.867-2.3906 33.621-10.453 0.10547-0.089844 0.21875-0.16797 0.33203-0.23828 5.0977-3.9648 9.4023-6.7422 11.684-6.9922 1.7305-0.18359 3.2812 1.0703 3.4648 2.8008 0.18359 1.7305-1.0703 3.2812-2.8008 3.4648-1.1484 0.125-4.3281 2.3555-8.4414 5.625-0.070312 0.070313-0.14062 0.13672-0.21875 0.19922-0.48047 0.39844-0.96484 0.77734-1.4531 1.1445-1.1055 0.89844-2.2656 1.8594-3.457 2.8555-11.609 9.7383-25.492 22.988-27.633 25.387-10.816 12.109-21.66 24.195-32.504 36.281-4.418 4.9258-8.8359 9.8477-13.25 14.773 4.2109 4.6211 2.9922 9.1875-0.33203 13.355-1.9062 2.3867-4.5469 4.5156-7.0547 6.3633 2.4688 0.21875 5.0039-0.23047 7.6562-1.2578 4.7305-1.8359 9.8867-5.4844 15.727-10.531 3.1953-2.7656 7.1523-6.6328 11.246-10.824 4.2617-4.3633 8.4805-8.8594 12.156-12.836 2.1133-2.2852 1.1211-1.2188 1.4336-1.5586 5.25-5.6367 9.2227-9.9023 9.5039-15.859 0.082031-1.7383 1.5547-3.0781 3.293-2.9961 1.7383 0.082031 3.0781 1.5547 2.9961 3.293-0.007812 0.20312-0.023437 0.40234-0.035156 0.60156l11.449-9.3086 0.054687-0.042968-0.003906-0.007813c3.6094-2.8086 5.6484-4.4961 6.7852-6.3672 1.1445-1.8828 1.6914-4.4258 2.3555-9.0039 0.24609-1.7227 1.8398-2.9219 3.5625-2.6758s2.9219 1.8398 2.6758 3.5625c-0.41797 2.8828-0.82031 5.1211-1.3594 7.0039 1.9258 1.2891 5.2656 2.1992 9.043 2.4453 4.3594 0.28516 9.1055-0.40625 12.82-2.5117 1.5117-0.85938 3.4336-0.32812 4.293 1.1836 0.85938 1.5117 0.32812 3.4336-1.1836 4.293-4.875 2.7617-10.891 3.6758-16.324 3.3242-4.332-0.28125-8.4023-1.4141-11.359-3.1016-1.6523 2.2188-3.9102 4.0859-7.4375 6.832l-0.003906-0.003906-15.004 12.195c1.9062 1.3438 4.0742 2.8828 6.2734 4.4453 23.949 17.016 52.324 37.172 90.34 39.871 3.8164 0.26953 7.6875 0.37109 11.605 0.27734 3.9141-0.09375 7.9883-0.37891 12.238-0.87891 1.7305-0.20312 3.2969 1.0312 3.5039 2.7617 0.20312 1.7305-1.0312 3.2969-2.7617 3.5039-4.3242 0.51172-8.6016 0.80469-12.832 0.90625-4.2227 0.097656-8.2852 0-12.199-0.27734-39.77-2.8203-68.93-23.539-93.547-41.027-2.4453-1.7383-4.8398-3.4375-7.7109-5.4414l-0.15234 0.125c-1.7656 2.3398-3.9062 4.6406-6.2695 7.1797-1.2539 1.3477-0.29687 0.30078-1.4336 1.5312-3.8906 4.207-8.2227 8.832-12.258 12.961-4.2031 4.3008-8.2852 8.293-11.641 11.195-6.3555 5.4961-12.086 9.5117-17.574 11.641-5.8008 2.25-11.273 2.4219-16.777 0.058594-1.6289 0.82812-3.4883 1.4805-5.3672 1.6992-2.6289 0.30469-5.293-0.19141-7.5586-2.0664-0.28906-0.23828-0.57031-0.52344-0.85156-0.85156-1.2383-1.4531-1.5586-3.0156-1.2852-4.5625 0.22266-1.2617 0.85156-2.3984 1.6602-3.375 0.41016-0.49609 0.91406-0.98438 1.4492-1.4414 2.7656-2.3555 5.4922-4.418 8.2031-6.4688 4.6484-3.5195 9.2617-7.0078 12.496-10.621 4.6836-5.2227 9.3672-10.445 14.051-15.668 5.7773-6.4414 11.559-12.883 17.332-19.328-6.8789-4.418-13.094-7.7773-18.723-9.3125-5.5664-1.5195-10.594-1.2109-15.207 1.7344l-0.29688 0.32031c-1.2852 1.3789-0.55469 0.57812-1.5391 1.6445-4.1602 4.5-8.8008 9.4531-13.133 13.887-4.5 4.6055-8.8711 8.8789-12.465 11.984-6.793 5.8711-12.914 10.164-18.77 12.434-6.1953 2.4023-12.035 2.5742-17.906 0.023438-1.7461 0.90234-3.7461 1.6133-5.7695 1.8438-2.7578 0.32031-5.5586-0.20313-7.9297-2.1641-0.30078-0.25-0.59375-0.54688-0.88672-0.88672-1.2773-1.5-1.6055-3.1094-1.3281-4.7031 0.23047-1.3086 0.88672-2.4961 1.7305-3.5117 0.43359-0.52344 0.96484-1.0391 1.5273-1.5156 2.9492-2.5117 5.8711-4.7227 8.7812-6.9258 4.9922-3.7773 9.9414-7.5234 13.426-11.41 5.0352-5.6172 10.07-11.23 15.105-16.844 9.7852-10.91 19.574-21.82 29.348-32.746l-8.2109 0.99219c-0.42578 0.050781-0.83984 0.011718-1.2266-0.097656-1.5391 1.2422-3.1953 2.4883-4.9531 3.8086-0.25 0.1875 0.49609-0.37109-1.793 1.3594-4.7148 3.5703-10.074 7.5742-15.379 11.367-5.2539 3.7578-10.312 7.2031-14.367 9.6172-7.7148 4.5898-14.492 7.7422-20.648 8.9492-6.5156 1.2812-12.293 0.42188-17.633-3.125-1.875 0.58203-3.9688 0.92969-5.9922 0.80859-2.7773-0.17188-5.4453-1.1719-7.4375-3.5234-0.26953-0.31641-0.50781-0.65625-0.71875-1.0156-0.99219-1.6992-1.0312-3.3398-0.47656-4.8633 0.45703-1.2539 1.3125-2.3086 2.3164-3.1602 0.53906-0.45703 1.1445-0.86719 1.7578-1.2266 3.3203-1.9414 6.6016-3.6172 9.8633-5.2812 5.5781-2.8477 11.113-5.668 15.223-8.8828 5.9219-4.6328 11.848-9.2617 17.77-13.895 12.207-9.5391 24.414-19.082 41.098-32.176 2.4961-1.9609 4.0195-3.082 6.168-3.7422 2.0742-0.63672 4.2578-0.66406 8-0.41406 13.227 0.89062 23.324 0.98828 33.047 0.67578l-0.61719-0.48438c-5.0195-3.9297-9.5234-4.1289-16.023-4.4141-0.44141-0.019531-0.88672-0.039062-1.2656-0.054688-3.7852 0.66406-7.9219 0.67188-12.617 0.67969-0.73047 0-1.4727 0.003906-2.2461 0.007812-6.0078 0.03125-12.738 0.019532-19.109-0.12109-6.4766-0.14453-12.598-0.42188-17.266-0.91797-8.9297-0.95312-16.246-2.5-21.898-5.2266-5.9961-2.8906-10.113-7.043-12.254-13.078-1.8438-0.66016-3.7227-1.6328-5.2656-2.9414-2.1211-1.8008-3.6523-4.207-3.8398-7.2812-0.027344-0.44531-0.015625-0.85938 0.027344-1.2461 0.22266-1.9453 1.1836-3.2852 2.5547-4.1797 1.1133-0.72656 2.4258-1.0547 3.7422-1.1328 0.73438-0.042968 1.4648-0.011718 2.1445 0.0625 3.6523 0.41797 7.3594 1.0586 11.047 1.6992 6.1719 1.0703 12.289 2.1289 17.523 2.0195 7.543-0.15625 15.082-0.30859 22.625-0.46094 17.375-0.35156 34.746-0.70312 52.117-1.0898 3.1719-0.070312 5.0625-0.054687 7.1641 0.69922 2.0469 0.73438 3.8086 2.0234 6.6484 4.4648 20.289 17.453 32.918 25.84 53.039 39.195 2.5312 1.6797 5.207 3.457 9.5742 6.3711 4.7031 3.0352 9.1328 5.9727 13.387 8.793 5.9375 3.9375 11.523 7.6406 16.965 11.02 0.054687 0.03125 0.10938 0.066406 0.16406 0.10156 17.922 11.117 34.297 18.707 56.66 19.613zm-423.29-150.71c0.67188 0.85547 0.52344 2.0938-0.33203 2.7656s-2.0938 0.52344-2.7656-0.33203l-11.645-14.828c-0.67188-0.85547-0.52344-2.0938 0.33203-2.7656 0.85547-0.67188 2.0938-0.52344 2.7656 0.33203zm386.77 236.16c-1.0742-0.18359-1.793-1.1992-1.6094-2.2734s1.1992-1.793 2.2734-1.6094c3.3008 0.57422 6.6523 1.0234 10.059 1.332 3.4492 0.31641 6.9883 0.5 10.625 0.53906 1.0859 0.007812 1.957 0.89453 1.9492 1.9805-0.007813 1.0859-0.89453 1.957-1.9805 1.9492-3.7539-0.039063-7.4023-0.23047-10.949-0.55469-3.5898-0.32813-7.043-0.78516-10.367-1.3633zm-273.41-138.61c-0.90234 6.1172 6.1172 8.1758 13.84 10.438 0.046875 0.011719 0.089844 0.027344 0.13672 0.042969 1.4883 0.4375 3 0.87891 4.5 1.3594-4.8242-7.4453-8.4062-11.633-18.477-11.84zm12.062 16.48c-10.621-3.1133-20.27-5.9414-18.355-17.176l-0.03125-0.03125c-0.066407-0.0625-0.12891-0.125-0.19141-0.19141l-57.609-57.855c-5.4023 5.1328-10.879 9.1797-15.578 11.684-6.3945 3.4102-11.84 4.0469-14.824 1.1094-0.55469-0.54688-0.98828-1.1797-1.3047-1.8906l-47.617-60.633c-2.6562-2.8086-2.9258-7.2188-1.1992-12.117 1.5-4.2578 4.5742-9.0742 8.8672-13.434l0.019532-0.019532-0.007813-0.007812c0.050781-0.050782 0.10547-0.10156 0.16016-0.14844 4.25-4.2734 8.9492-7.3633 13.133-8.9102 4.8711-1.8008 9.2812-1.5977 12.129 1.0195l62.652 47.406c0.066406 0.050781 0.12891 0.10156 0.19141 0.15625 0.14453 0.11719 0.28516 0.24219 0.41797 0.375 2.9844 2.9414 2.4336 8.3945-0.875 14.836-2.4844 4.8359-6.5508 10.5-11.742 16.086l56.738 56.98c16.871-0.76562 20.82 5.4297 28.246 17.09 1.2031 1.8906 2.5117 3.9414 3.9727 6.1016 0.73828 1.0039 0.83594 2.3945 0.14453 3.5195-0.91406 1.4766-2.8516 1.9375-4.3281 1.0234-3.582-2.2148-8.3281-3.6133-12.871-4.9453-0.046875-0.011719-0.09375-0.023438-0.14453-0.039063zm-85.238-93.266 9.0312 9.0703c4.7227-5.1055 8.3867-10.191 10.59-14.48 1.9883-3.875 2.8359-6.6641 2.0781-7.4688l-0.19922-0.15234c-0.98047-0.52734-3.6523 0.375-7.2695 2.3008-4.2344 2.2578-9.2305 5.9688-14.23 10.727zm4.6055 13.551-9.0234-9.0625c-4.6602 5.0586-8.2773 10.09-10.461 14.344-1.6406 3.1914-2.5039 5.6484-2.332 6.8633 0.11328 0.19922 0.20312 0.40625 0.27344 0.62109 0.79297 0.78125 3.582-0.10547 7.4492-2.168 4.1953-2.2383 9.1406-5.9023 14.094-10.598zm-11.305-15.805 0.007813 0.007813c6.1562-6.25 12.57-11.152 17.965-14.027 1.2734-0.67969 2.5039-1.2461 3.6914-1.6992l-56.035-42.402 0.003907-0.003907c-0.10938-0.082031-0.21094-0.17187-0.3125-0.26953-0.9375-0.92188-3.0625-0.76953-5.7422 0.22266-3.3789 1.25-7.2461 3.8164-10.828 7.418-0.054687 0.0625-0.10938 0.125-0.16797 0.18359l-0.007813-0.003906c-3.6211 3.6797-6.1797 7.6523-7.3945 11.094-0.92188 2.6211-1.0586 4.7031-0.19922 5.6602 0.12109 0.11328 0.23438 0.23438 0.33984 0.37109l43.34 55.191c0.42188-1.1289 0.94531-2.3047 1.5664-3.5156 2.7734-5.3984 7.5195-11.828 13.602-18.031 0.054688-0.066406 0.11719-0.13281 0.17969-0.19531zm236.48 79.668c4.3086-0.23828 8.7227-0.53516 13.477-0.85547 5.6016-0.375 11.68-0.78125 18.973-1.1836-10.441-7.2891-20.211-14.727-33.008-25.738-2.2578-1.9414-3.5469-2.9258-4.6758-3.3281-1.0742-0.38672-2.4844-0.38281-4.918-0.32812-17.371 0.38672-34.746 0.73828-52.117 1.0898-7.1797 0.14453-14.359 0.28906-21.539 0.4375-0.45703 6.6875-4.8789 9.0664-10.527 9.5078-3.3984 0.26562-7.2109-0.32422-10.637-0.98438 1.6875 2.3477 4.0352 4.1719 7.0156 5.6094 4.9297 2.375 11.578 3.75 19.828 4.6328 4.5586 0.48828 10.48 0.75781 16.727 0.89453 6.3477 0.14062 13.02 0.15234 18.961 0.12109 0.76172-0.003906 1.5273-0.003906 2.2734-0.007812 8.293-0.011719 14.57-0.023438 19.516-4.2227 1.3281-1.125 3.3164-0.95703 4.4414 0.37109 1.0391 1.2305 0.97656 3.0234-0.09375 4.1758 3.3047 0.72266 6.4336 2.0742 9.9141 4.8047l6.3906 5.0078zm-90.238-30.066c-4.332-0.34766-8.8359-1.1289-13.363-1.9141-3.6055-0.625-7.2266-1.25-10.699-1.6484-0.36328-0.042969-0.72656-0.058594-1.0586-0.039063-0.14844 0.007813-0.28125 0.019532-0.39062 0.039063 0.10938 1.0586 0.74219 1.9648 1.6094 2.6992 1.5156 1.2891 3.625 2.0703 5.3672 2.3867 0.81641 0.14844 1.7305 0.33203 2.6992 0.52734 3.5391 0.71484 7.8633 1.5898 11.273 1.3242 2.2461-0.17578 4.0586-1.0469 4.5664-3.375zm92.457 115.72c3.6445-4.0703 7.2852-8.1367 10.922-12.211 1.5078-1.6836 8.4336-8.3945 16.387-15.605-5.4648 1.1953-10.961 1.7461-16.18 2.2656-3.2344 0.32422-6.3555 0.63672-9.1641 1.0742l-17.27 2.6953c-6.2891 0.98047-9.5078 4.1406-14.156 8.6953-0.30078 0.29297-0.60547 0.59375-0.89453 0.87891-0.10156 0.15625-0.20312 0.3125-0.30859 0.46484 3.0078-0.17969 6.1172 0.21875 9.3477 1.1016 6.5859 1.7969 13.613 5.6367 21.316 10.641zm-34.676 47.645c-2.9609 2.6797-6.3008 5.2031-9.6562 7.7461-2.793 2.1133-5.6016 4.2383-7.9297 6.2227-0.21094 0.17969-0.43359 0.40234-0.66016 0.67578l-0.085938 0.10938c0.71875 0.46094 1.6172 0.56641 2.5469 0.46094 1.7969-0.20703 3.6406-1.1328 4.9453-2.1055 0.67578-0.50391 1.3594-0.98828 2.082-1.5039 2.7344-1.9531 6.0781-4.3359 8.0273-6.7812 1.207-1.5117 1.7539-3.1523 0.73438-4.8242zm93.703-115.95c-4.4688-2.8711-9.1641-5.8086-14.133-8.7812-2.7812-1.6641-4.9219-2.8672-6.9609-3.5781-1.9062-0.66406-3.8633-0.92578-6.4414-0.78516-7.1875 0.39062-13.77 0.83203-19.812 1.2383-19.352 1.2969-33.152 2.2188-57.012 0.61328-2.9648-0.19922-4.582-0.21094-5.7344 0.14062-1.0781 0.33203-2.207 1.1797-4.1172 2.6797-10.691 8.3906-25.906 20.285-41.121 32.176-5.6406 4.4102-11.281 8.8164-16.918 13.227 3.6406 5.6211 1.5312 10.172-2.7188 13.91-2.5859 2.2734-5.9805 4.0859-9.0977 5.6055 2.7539 0.85938 5.7266 0.91016 8.9805 0.26953 5.3711-1.0547 11.523-3.9453 18.652-8.1875 3.9219-2.332 8.8281-5.6758 13.922-9.3203 5.0469-3.6094 10.422-7.625 15.23-11.27 1.0625-0.80469 0.38672-0.28516 1.8164-1.3594 6.6328-4.9844 11.648-8.7578 13.086-15.074 0.38281-1.6953 2.0664-2.7617 3.7617-2.3789 1.6953 0.38281 2.7617 2.0664 2.3789 3.7617-0.71094 3.1211-1.9336 5.6875-3.5742 7.9688l6.0781-0.73438c0.75391-0.089843 1.4805 0.097657 2.0742 0.47656 2-2.2344 3.2852-3.5547 5.2148-4.543 1.9297-0.99219 4.0781-1.4023 7.8086-1.8086 23.348-2.5547 36.602-5.8398 55.188-10.449 5.9102-1.4648 12.348-3.0625 19.375-4.7109 3.3555-0.78906 6.0664-0.88672 8.8984-0.42969 1.6875 0.26953 3.3477 0.72656 5.1797 1.3438zm-150.85 84.469c-3.2188 2.9336-6.8633 5.6914-10.535 8.4688-2.9922 2.2656-6 4.5391-8.5117 6.6797-0.23828 0.20312-0.48828 0.45312-0.73828 0.75391-0.09375 0.11328-0.17578 0.21875-0.23828 0.3125 0.85156 0.64062 1.9453 0.79688 3.0781 0.66406 1.9688-0.22656 3.9805-1.2383 5.4062-2.2969 0.71875-0.53516 1.4492-1.0586 2.2266-1.6094 2.9414-2.1016 6.5391-4.668 8.6484-7.3086 1.4141-1.7695 2.0195-3.6992 0.66016-5.6602zm-26.633-43.82c-3.6836 2.3242-7.7578 4.4023-11.859 6.4961-3.3281 1.6992-6.6758 3.4062-9.543 5.082-0.29297 0.17188-0.59375 0.375-0.86719 0.60938-0.11328 0.097656-0.21094 0.1875-0.28906 0.26562 0.72656 0.78125 1.7734 1.1289 2.9062 1.1953 1.9883 0.12109 4.1484-0.51953 5.7344-1.3125 1.043-0.51953 1.7422-0.85547 2.4805-1.2031 3.2734-1.5547 7.2734-3.457 9.8047-5.6797 1.6992-1.4922 2.625-3.2812 1.6367-5.4531z"/>
</svg>
